<?xml version="1.0" encoding="utf-8"?>
<svg viewBox="0 0 356 105" xmlns="http://www.w3.org/2000/svg" version="1.1" xmlns:xlink="http://www.w3.org/1999/xlink">
    <path
        d="m21.03 62.553 11.433-15.708q1.751-2.524 4.172-5.099l-.155-.154q-3.656.463-7.983.463h-7.364q-.31-1.184-.31-2.858t.567-3.837h22.816q1.133 4.275 1.133 5.434t-.927 2.497l-11.485 15.76q-1.751 2.472-4.018 4.841l.155.155q5.15-.36 7.725-.36h2.884q3.09 0 5.769-1.185.566 1.802.566 3.81T44.54 69.43t-3.94 1.107H20.927Q20 66.416 20 65.206t1.03-2.653M79.587 35l.36.36v35.021q-2.06.464-4.866.464t-4.97-.309l-8.086-18.438q-1.442-3.141-2.935-7.261l-.155.051q.618 7.52.618 15.4v10.248q-1.596.309-3.863.309t-3.81-.309V35.515q1.956-.464 4.712-.464t4.918.31l7.983 18.385q2.163 5.099 3.193 7.829l.206-.103q-.618-7.16-.618-15.193v-6.284q0-2.678 1.082-3.837T76.858 35zm16.687 28.17q-1.39 0-2.06-.051l-2.215 7.468q-1.236.309-3.45.309-2.472 0-4.017-.567l-.258-.412 11.33-34.558q2.01-.309 4.687-.309 3.039 0 4.841.36l11.125 34.61q-1.803.979-4.069.979-2.678 0-3.76-.928t-1.854-3.553l-.978-3.4q-.67.052-2.009.052zm-.154-6.489 2.06-.052h3.76q.257 0 .9.026t.953.026l-.875-3.193q-1.236-4.326-2.833-10.61h-.309q-.412 2.215-2.472 9.837zm36.772 2.833h-4.069v11.021q-1.648.309-4.12.309-2.523 0-4.12-.309V35.618l.36-.36q4.481-.104 7.443-.155t4.506-.052q2.833 0 5.176.773t3.991 2.317 2.55 3.837.9 5.28-.926 5.278-2.575 3.837-3.992 2.343-5.124.799m-4.069-18.18v12q1.442-.052 2.292-.078t1.107-.026q1.391 0 2.318-.489t1.494-1.287.824-1.88.257-2.266q0-1.133-.257-2.215t-.799-1.906-1.416-1.313-2.06-.49h-2.112z"
        fill="#FFF"></path>
    <path xmlns="http://www.w3.org/2000/svg"
        d="M65.438 5 27.624 56.313h21.344l-14.5 38.625.093.062 37.813-51.312H51.031zM50 7.281C26.45 7.281 7.281 26.45 7.281 50c0 17.814 10.965 33.131 26.5 39.531.85-2.24 1.717-4.477 2.563-6.719C23.497 77.473 14.469 64.811 14.469 50c0-19.66 15.872-35.531 35.531-35.531 1.72 0 3.408.14 5.063.375 1.58-2.14 3.168-4.3 4.75-6.438A42.8 42.8 0 0 0 50 7.281m16.031 3.125c-.79 2.26-1.58 4.503-2.406 6.75A35.48 35.48 0 0 1 85.531 50c0 19.66-15.872 35.5-35.531 35.5-1.713 0-3.384-.111-5.031-.344-1.574 2.143-3.148 4.293-4.719 6.438A42.6 42.6 0 0 0 50 92.719c23.55 0 42.719-19.168 42.719-42.719 0-17.88-11.06-33.236-26.688-39.594"
        style="text-indent:0;text-transform:none;direction:ltr;block-progression:tb;baseline-shift:baseline" fill="#FFF"
        fill-rule="evenodd" overflow="visible" transform="matrix(.72 0 0 .72 160.757 16.4)"></path>
    <path
        d="M275.626 35.357v22.009q0 6.536-3.575 10.085T261.84 71t-10.24-3.55-3.6-10.083v-22.01l.358-.357h3.012q4.852 0 4.852 5.208v17.26q0 3.574 1.276 5.31t4.34 1.737 4.341-1.737 1.277-5.31v-22.11q1.583-.307 4.085-.307 2.45 0 4.085.306m32.272 10.775q0 1.685-.51 3.191t-1.354 2.707-1.991 2.093-2.375 1.353q2.656.97 3.932 4.698l1.532 4.34q.868 2.554 2.553 3.78-.766 1.02-2.298 1.71t-3.37.69-2.86-1.047-1.889-3.651l-1.838-5.362q-.562-1.532-1.506-2.35t-2.834-.816h-2.094v12.766q-1.634.306-4.085.306t-4.034-.306V35.613l.357-.358q4.443-.102 7.481-.153t4.775-.051q2.808 0 5.106.69t3.906 2.067 2.502 3.473.894 4.85m-16.902-4.953v10.009q2.298 0 3.932-.077t2.63-.612 1.506-1.507.51-2.808q0-4.953-4.8-4.953h-2.118zM327.2 63.34h8.834q0 2.043-.255 3.498t-1.634 2.502-3.626 1.047h-11.54q-2.196 0-3.472-1.277t-1.277-3.472v-30.28l.357-.358h3.013q4.8 0 4.8 5.208v23.336q2.247-.204 4.8-.204"
        fill="#fff"></path>
</svg>